Coordinates
version=1
nRows=17
nColumns=40
inDegrees=yes

Units are S.I. units (second, meters, Newtons, ...)
Angles are in degrees.

endheader
time	pelvis_tilt	pelvis_list	pelvis_rotation	pelvis_tx	pelvis_ty	pelvis_tz	hip_flexion_r	hip_adduction_r	hip_rotation_r	knee_angle_r	knee_angle_r_beta	ankle_angle_r	subtalar_angle_r	mtp_angle_r	hip_flexion_l	hip_adduction_l	hip_rotation_l	knee_angle_l	knee_angle_l_beta	ankle_angle_l	subtalar_angle_l	mtp_angle_l	lumbar_extension	lumbar_bending	lumbar_rotation	arm_flex_r	arm_add_r	arm_rot_r	elbow_flex_r	pro_sup_r	wrist_flex_r	wrist_dev_r	arm_flex_l	arm_add_l	arm_rot_l	elbow_flex_l	pro_sup_l	wrist_flex_l	wrist_dev_l
     20.66000000	     -7.71851931	      8.14416592	     88.14365109	      0.68105554	      1.02088906	     -0.96407380	    -11.95898537	      0.56336069	     -2.35004007	      0.50677575	      0.00884491	     11.74251125	      0.00000000	      0.00000000	    -29.90286575	    -17.24375028	    -20.29996196	     11.11219302	      0.19394436	     10.18421597	      0.00000000	      0.00000000	    -22.42000049	     -1.80965353	     -3.72143141	      1.64638586	     -7.39035716	     11.21672646	     60.67930106	     88.90734536	      0.00000000	      0.00000000	      2.18067873	    -10.39320222	    -10.24991824	     50.73699485	     88.80431604	      0.00000000	      0.00000000
     20.67000000	     -7.72270081	      7.30210844	     88.65185006	      0.68105670	      1.01954085	     -0.96582613	    -11.19169934	      0.72837713	     -2.51920608	      0.53250233	      0.00929392	     12.06965426	      0.00000000	      0.00000000	    -29.90652137	    -18.41654190	    -20.85129292	     11.85054596	      0.20683105	     10.69473632	      0.00000000	      0.00000000	    -21.17373727	     -1.75109977	     -4.39529705	      1.32998130	     -7.10850621	     11.17770863	     60.20554249	     88.89615646	      0.00000000	      0.00000000	      2.17018266	    -10.62316225	    -10.01373076	     50.54959554	     88.78933935	      0.00000000	      0.00000000
     20.68000000	     -7.74719784	      6.49804138	     88.99253336	      0.68133779	      1.01824794	     -0.96698821	    -10.39339654	      0.83509076	     -2.48887971	      0.58220012	      0.01016131	     12.35555524	      0.00000000	      0.00000000	    -29.91024296	    -19.47042497	    -21.42978598	     12.63061690	      0.22044585	     11.01734346	      0.00000000	      0.00000000	    -20.05936963	     -1.80515546	     -4.91099427	      1.11360337	     -6.80330942	     11.12133013	     59.65893905	     88.88981655	      0.00000000	      0.00000000	      2.19593576	    -10.91517972	     -9.67505915	     50.48158085	     88.78932677	      0.00000000	      0.00000000
     20.69000000	     -7.62983334	      5.59022310	     89.23322819	      0.68160997	      1.01667883	     -0.96864021	     -9.50349568	      1.07851868	     -2.39105451	      0.64194757	      0.01120410	     12.60907680	      0.00000000	      0.00000000	    -29.91326187	    -20.57896386	    -22.17712617	     13.31606240	      0.23240913	     11.35492420	      0.00000000	      0.00000000	    -18.71621630	     -1.73685348	     -5.29480386	      0.79408667	     -6.58858366	     11.06170640	     59.22887586	     88.89435570	      0.00000000	      0.00000000	      2.14936621	    -11.08254370	     -9.47833661	     50.27530810	     88.78778791	      0.00000000	      0.00000000
     20.70000000	     -7.67929840	      4.69247976	     89.39830909	      0.68168897	      1.01520313	     -0.97026691	     -8.61917500	      1.09044346	     -2.28942341	      0.69174648	      0.01207325	     12.81669929	      0.00000000	      0.00000000	    -29.91624166	    -21.38664725	    -22.94772255	     13.86836596	      0.24204865	     11.64570190	      0.00000000	      0.00000000	    -17.38002014	     -1.85806155	     -5.64695596	      0.49035080	     -6.38993236	     11.01072371	     58.82377923	     88.89513366	      0.00000000	      0.00000000	      2.08027378	    -11.23828571	     -9.28251973	     50.11012771	     88.79066347	      0.00000000	      0.00000000
     20.71000000	     -7.57577349	      3.74823239	     89.48798982	      0.68188893	      1.01355340	     -0.97179868	     -7.69465265	      1.26307925	     -2.13649555	      0.71067438	      0.01240361	     13.05136639	      0.00000000	      0.00000000	    -29.91839008	    -22.24766559	    -23.66681900	     14.37294679	      0.25085524	     11.99909223	      0.00000000	      0.00000000	    -15.97152123	     -1.84216808	     -5.87067498	      0.17048336	     -6.24575737	     10.99801069	     58.39359265	     88.89886304	      0.00000000	      0.00000000	      1.99602435	    -11.35471438	     -9.08915401	     49.90943149	     88.79267726	      0.00000000	      0.00000000
     20.72000000	     -7.52809829	      2.77532730	     89.53582914	      0.68215927	      1.01179073	     -0.97362517	     -6.76335301	      1.36226696	     -1.99011991	      0.71852724	      0.01254067	     13.28198857	      0.00000000	      0.00000000	    -29.92032425	    -22.97022627	    -24.39777729	     14.77676884	      0.25790327	     12.24544698	      0.00000000	      0.00000000	    -14.46109597	     -1.90302537	     -6.05021959	     -0.22329901	     -6.10929665	     11.02104199	     57.96291383	     88.90059478	      0.00000000	      0.00000000	      1.81320908	    -11.46571732	     -8.90900910	     49.71767228	     88.79619339	      0.00000000	      0.00000000
     20.73000000	     -7.49336132	      1.82124025	     89.57173517	      0.68235016	      1.01013003	     -0.97539742	     -5.81657948	      1.43664717	     -1.81374340	      0.77162256	      0.01346735	     13.50859963	      0.00000000	      0.00000000	    -29.92162398	    -23.59696528	    -25.03262156	     15.08651067	      0.26330928	     12.43390942	      0.00000000	      0.00000000	    -12.96638581	     -1.97565774	     -6.22294771	     -0.58877116	     -5.98532154	     11.05380486	     57.50616654	     88.90262581	      0.00000000	      0.00000000	      1.64033135	    -11.53274298	     -8.77733748	     49.44083448	     88.79790805	      0.00000000	      0.00000000
     20.74000000	     -7.46873255	      0.95610297	     89.62691210	      0.68245364	      1.00868411	     -0.97684405	     -4.92906376	      1.49915494	     -1.59226108	      0.85308103	      0.01488907	     13.71717068	      0.00000000	      0.00000000	    -29.92259189	    -24.13242411	    -25.45989681	     15.34606096	      0.26783929	     12.63214387	      0.00000000	      0.00000000	    -11.61572311	     -2.05823010	     -6.39190347	     -0.91476659	     -5.85760322	     11.10595026	     57.08434458	     88.90718455	      0.00000000	      0.00000000	      1.52125443	    -11.58292441	     -8.64032249	     49.18019621	     88.79904446	      0.00000000	      0.00000000
     20.75000000	     -7.42431286	      0.03461649	     89.65012725	      0.68251670	      1.00695836	     -0.97884004	     -3.99916497	      1.57825420	     -1.31296860	      0.95765062	      0.01671416	     13.97158495	      0.00000000	      0.00000000	    -29.92349602	    -24.57574995	    -25.87138522	     15.47128889	      0.27002493	     12.80287835	      0.00000000	      0.00000000	    -10.08525555	     -2.12465145	     -6.52229370	     -1.34613719	     -5.76580189	     11.15987605	     56.68257610	     88.90836760	      0.00000000	      0.00000000	      1.23329478	    -11.64440637	     -8.50135323	     48.97301182	     88.79824542	      0.00000000	      0.00000000
     20.76000000	     -7.31826038	     -0.87430559	     89.66691284	      0.68249707	      1.00522225	     -0.98091120	     -3.08095953	      1.72537618	     -1.04037179	      1.07551563	      0.01877129	     14.19831198	      0.00000000	      0.00000000	    -29.92391657	    -24.99396215	    -26.27016776	     15.51026259	      0.27070515	     12.93827060	      0.00000000	      0.00000000	     -8.54679900	     -2.12834786	     -6.61192593	     -1.78710339	     -5.73996715	     11.22655193	     56.31265705	     88.91037880	      0.00000000	      0.00000000	      0.94292632	    -11.63785526	     -8.43118080	     48.70499512	     88.79514530	      0.00000000	      0.00000000
     20.77000000	     -7.40214173	     -1.56366395	     89.68148062	      0.68243532	      1.00398359	     -0.98235420	     -2.31139257	      1.65295622	     -0.71380769	      1.28048204	      0.02234863	     14.36281821	      0.00000000	      0.00000000	    -29.92476544	    -25.18408799	    -26.56923849	     15.62813528	      0.27276242	     13.01968296	      0.00000000	      0.00000000	     -7.37673905	     -2.33198431	     -6.72298980	     -2.09762034	     -5.64779372	     11.30094655	     55.93722118	     88.90759054	      0.00000000	      0.00000000	      0.73317768	    -11.71537915	     -8.33842190	     48.57170924	     88.80232573	      0.00000000	      0.00000000
     20.78000000	     -7.36278946	     -2.41594810	     89.67628131	      0.68232072	      1.00222750	     -0.98472297	     -1.34732768	      1.71871123	     -0.51791497	      1.64143060	      0.02864837	     14.82723399	      0.00000000	      0.00000000	    -29.92421069	    -25.33184778	    -26.73805933	     15.43461205	      0.26938480	     13.00018872	      0.00000000	      0.00000000	     -5.81674967	     -2.40249035	     -6.77255755	     -2.60879076	     -5.62651144	     11.39707268	     55.53344505	     88.90823052	      0.00000000	      0.00000000	      0.31505244	    -11.71061102	     -8.34006126	     48.43268285	     88.80703128	      0.00000000	      0.00000000
     20.79000000	     -7.49040765	     -2.75535462	     89.73246580	      0.68227082	      1.00154915	     -0.98544809	     -0.93152294	      1.59896666	     -0.27874834	      1.80753119	      0.03154737	     14.82517368	      0.00000000	      0.00000000	    -29.92584823	    -25.42248342	    -26.71506638	     15.75227461	      0.27492906	     12.99680182	      0.00000000	      0.00000000	     -5.22482906	     -2.65624240	     -6.87308943	     -2.85441467	     -5.54257414	     11.40372008	     55.47489703	     88.91002928	      0.00000000	      0.00000000	      0.24821234	    -11.78280291	     -8.36545591	     48.40057674	     88.80562786	      0.00000000	      0.00000000
     20.80000000	     -7.27356589	     -3.51707963	     89.69164487	      0.68211178	      0.99998236	     -0.98731711	     -0.01560691	      1.85472747	     -0.14447696	      2.22036811	      0.03875273	     15.43877923	      0.00000000	      0.00000000	    -29.92354355	    -25.58052586	    -26.85196770	     15.48739029	      0.27030595	     12.88572312	      0.00000000	      0.00000000	     -3.83605702	     -2.50578337	     -6.85274337	     -3.22079010	     -5.54606344	     11.39601869	     55.13558978	     88.91541687	      0.00000000	      0.00000000	     -0.11129341	    -11.69412518	     -8.34568581	     48.14822892	     88.80422956	      0.00000000	      0.00000000
     20.81000000	     -7.23075025	     -3.88081703	     89.69209109	      0.68203419	      0.99908911	     -0.98831669	      0.45445986	      1.91043742	      0.07398448	      2.50321176	      0.04368929	     15.65900370	      0.00000000	      0.00000000	    -29.92346801	    -25.61830961	    -26.62048573	     15.63187038	      0.27282761	     12.90129554	      0.00000000	      0.00000000	     -3.13752137	     -2.55651780	     -6.87033213	     -3.45992650	     -5.49631278	     11.40785348	     54.93279941	     88.91431907	      0.00000000	      0.00000000	     -0.29606013	    -11.72731347	     -8.34926486	     48.10357287	     88.80445413	      0.00000000	      0.00000000
     20.82000000	     -7.14343751	     -4.18061019	     89.69023753	      0.68193118	      0.99823230	     -0.98937964	      0.81403117	      2.01190932	      0.13560849	      2.71251304	      0.04734228	     15.93008078	      0.00000000	      0.00000000	    -29.92302461	    -25.64102274	    -26.51231573	     15.70492616	      0.27410267	     13.08663313	      0.00000000	      0.00000000	     -2.51378702	     -2.55194273	     -6.85915668	     -3.70149232	     -5.47689739	     11.37876057	     54.81417557	     88.91554193	      0.00000000	      0.00000000	     -0.48901000	    -11.70431831	     -8.49961840	     48.05745634	     88.80850228	      0.00000000	      0.00000000
